{
    "asset" : {
        "generator" : "Khronos glTF Blender I/O v1.7.33",
        "version" : "2.0"
    },
    "scene" : 0,
    "scenes" : [
        {
            "name" : "Scene",
            "nodes" : [
                0
            ]
        }
    ],
    "nodes" : [
        {
            "mesh" : 0,
            "name" : "barrel",
            "scale" : [
                1.154849648475647,
                1.5348496437072754,
                1.304849624633789
            ],
            "translation" : [
                0.31891778111457825,
                1.6512418985366821,
                0.30626073479652405
            ]
        }
    ],
    "materials" : [
        {
            "doubleSided" : true,
            "name" : "Material.001",
            "pbrMetallicRoughness" : {
                "baseColorFactor" : [
                    0.3238838016986847,
                    0.07113292813301086,
                    0.0012905142502859235,
                    1
                ],
                "metallicFactor" : 0,
                "roughnessFactor" : 0.4909090995788574
            }
        },
        {
            "doubleSided" : true,
            "name" : "Material.002",
            "pbrMetallicRoughness" : {
                "baseColorFactor" : [
                    0.061049122363328934,
                    0.07198360562324524,
                    0.10410088300704956,
                    1
                ],
                "metallicFactor" : 0,
                "roughnessFactor" : 0.5
            }
        }
    ],
    "meshes" : [
        {
            "name" : "Cylinder.002",
            "primitives" : [
                {
                    "attributes" : {
                        "POSITION" : 0,
                        "NORMAL" : 1,
                        "TEXCOORD_0" : 2
                    },
                    "indices" : 3,
                    "material" : 0
                },
                {
                    "attributes" : {
                        "POSITION" : 4,
                        "NORMAL" : 5,
                        "TEXCOORD_0" : 6
                    },
                    "indices" : 7,
                    "material" : 1
                }
            ]
        }
    ],
    "accessors" : [
        {
            "bufferView" : 0,
            "componentType" : 5126,
            "count" : 357,
            "max" : [
                1.2483779191970825,
                1,
                1.248377799987793
            ],
            "min" : [
                -1.2483779191970825,
                -1,
                -1.248377799987793
            ],
            "type" : "VEC3"
        },
        {
            "bufferView" : 1,
            "componentType" : 5126,
            "count" : 357,
            "type" : "VEC3"
        },
        {
            "bufferView" : 2,
            "componentType" : 5126,
            "count" : 357,
            "type" : "VEC2"
        },
        {
            "bufferView" : 3,
            "componentType" : 5123,
            "count" : 630,
            "type" : "SCALAR"
        },
        {
            "bufferView" : 4,
            "componentType" : 5126,
            "count" : 276,
            "max" : [
                1.2048512697219849,
                0.6724808812141418,
                1.2048510313034058
            ],
            "min" : [
                -1.2048512697219849,
                -0.7051355242729187,
                -1.2048510313034058
            ],
            "type" : "VEC3"
        },
        {
            "bufferView" : 5,
            "componentType" : 5126,
            "count" : 276,
            "type" : "VEC3"
        },
        {
            "bufferView" : 6,
            "componentType" : 5126,
            "count" : 276,
            "type" : "VEC2"
        },
        {
            "bufferView" : 7,
            "componentType" : 5123,
            "count" : 414,
            "type" : "SCALAR"
        }
    ],
    "bufferViews" : [
        {
            "buffer" : 0,
            "byteLength" : 4284,
            "byteOffset" : 0
        },
        {
            "buffer" : 0,
            "byteLength" : 4284,
            "byteOffset" : 4284
        },
        {
            "buffer" : 0,
            "byteLength" : 2856,
            "byteOffset" : 8568
        },
        {
            "buffer" : 0,
            "byteLength" : 1260,
            "byteOffset" : 11424
        },
        {
            "buffer" : 0,
            "byteLength" : 3312,
            "byteOffset" : 12684
        },
        {
            "buffer" : 0,
            "byteLength" : 3312,
            "byteOffset" : 15996
        },
        {
            "buffer" : 0,
            "byteLength" : 2208,
            "byteOffset" : 19308
        },
        {
            "buffer" : 0,
            "byteLength" : 828,
            "byteOffset" : 21516
        }
    ],
    "buffers" : [
        {
            "byteLength" : 22344,
            "uri" : "barrel.bin"
        }
    ]
}
